<?xml version="1.0" encoding="utf-8"?>
<!-- Generator: Adobe Illustrator 16.0.3, SVG Export Plug-In . SVG Version: 6.00 Build 0)  -->
<!DOCTYPE svg PUBLIC "-//W3C//DTD SVG 1.1//EN" "http://www.w3.org/Graphics/SVG/1.1/DTD/svg11.dtd">
<svg version="1.1" id="Layer_1" xmlns="http://www.w3.org/2000/svg" xmlns:xlink="http://www.w3.org/1999/xlink" x="0px" y="0px"
	 width="108px" height="108px" viewBox="0 0 108 108" enable-background="new 0 0 108 108" xml:space="preserve">
<path fill="#F5B303" d="M54,0C24.177,0,0,24.176,0,54c0,29.823,24.177,54,54,54c29.824,0,54-24.177,54-54C108,24.176,83.824,0,54,0z
	 M88.5,65.5c-4.334,0-8.333-3.25-12.833-8.75S65.167,42.5,55.834,34s-20.892-11.337-20.75-10.417
	c5,32.5-10.833,39.333-16.583,39.333s-6.969-5.808-6.007-15.347c0-0.001,0-0.002,0-0.003C15.599,27.451,33.029,12,54,12
	c21.947,0,40.004,16.924,41.835,38.405C96.213,60.724,92.813,65.5,88.5,65.5z"/>
</svg>
