<?xml version="1.0" encoding="utf-8"?>
<!-- Generator: Adobe Illustrator 16.0.3, SVG Export Plug-In . SVG Version: 6.00 Build 0)  -->
<!DOCTYPE svg PUBLIC "-//W3C//DTD SVG 1.1//EN" "http://www.w3.org/Graphics/SVG/1.1/DTD/svg11.dtd">
<svg version="1.1" id="Layer_1" xmlns="http://www.w3.org/2000/svg" xmlns:xlink="http://www.w3.org/1999/xlink" x="0px" y="0px"
	 width="108px" height="108px" viewBox="0 0 108 108" enable-background="new 0 0 108 108" xml:space="preserve">
<g>
	<path fill="#26A3FF" d="M94.9,29.785c0,4.143-0.638,8.031-1.912,11.668c-1.273,3.637-3.385,6.809-6.33,9.518
		c-2.946,2.707-6.837,4.845-11.668,6.411c-4.832,1.564-10.806,2.322-17.92,2.269h-2.707c-0.797,0-1.673-0.013-2.629-0.039
		c-0.955-0.026-2.083-0.106-3.384-0.239c-1.301-0.132-2.986-0.306-5.057-0.517v29.943c0,3.398,0.159,6.159,0.478,8.282
		c0.319,2.125,0.929,3.559,1.832,4.302c2.018,2.39,5.071,3.584,9.158,3.584h4.063v3.026H12.711v-3.026h3.902
		c2.23,0,4.168-0.344,5.814-1.035c1.646-0.691,2.947-1.778,3.903-3.266c0.424-0.85,0.796-2.243,1.115-4.182
		c0.318-1.938,0.477-4.499,0.477-7.686V19.034c0-6.637-0.69-10.884-2.07-12.743c-1.062-1.115-2.336-1.964-3.823-2.548
		c-1.487-0.584-3.292-0.876-5.416-0.876h-3.902V0h39.343c2.762,0,5.548,0.08,8.362,0.239c2.813,0.159,5.536,0.491,8.163,0.996
		c2.629,0.504,5.137,1.194,7.525,2.07c2.39,0.876,4.514,2.031,6.372,3.464c1.752,1.274,3.385,2.668,4.897,4.181
		s2.827,3.199,3.942,5.057c1.115,1.858,1.991,3.916,2.629,6.172C94.581,24.437,94.9,26.972,94.9,29.785z M76.742,31.458
		c0.054-3.292-0.398-6.464-1.36-9.517c-0.955-3.054-2.39-5.734-4.308-8.044c-1.919-2.309-4.326-4.155-7.228-5.535
		c-2.899-1.38-6.265-2.071-10.095-2.071c-1.281,0-2.794,0.146-4.552,0.438c-1.759,0.292-3.723,0.65-5.907,1.075v45.713
		c2.768,0.425,5.243,0.69,7.426,0.797c2.177,0.105,4.042,0.16,5.587,0.16c2.769,0,5.389-0.544,7.865-1.633
		c2.469-1.088,4.626-2.641,6.465-4.659c1.831-2.018,3.298-4.434,4.387-7.248C76.118,38.121,76.688,34.962,76.742,31.458z"/>
</g>
</svg>
