<?xml version="1.0" encoding="utf-8"?>
<!-- Generator: Adobe Illustrator 16.0.0, SVG Export Plug-In . SVG Version: 6.00 Build 0)  -->
<!DOCTYPE svg PUBLIC "-//W3C//DTD SVG 1.1//EN" "http://www.w3.org/Graphics/SVG/1.1/DTD/svg11.dtd">
<svg version="1.1" id="Layer_1" xmlns="http://www.w3.org/2000/svg" xmlns:xlink="http://www.w3.org/1999/xlink" x="0px" y="0px"
	 width="108px" height="108px" viewBox="0 0 108 108" enable-background="new 0 0 108 108" xml:space="preserve">
<g>
	<path fill="#64BE4B" d="M94.353,18.131c-2.413-0.001-11.496,0.771-25.22,11.172c0,0,27.5,20.081,27.313,58.057
		C103.676,78.175,108,66.596,108,54C108,40.229,102.838,27.67,94.353,18.131z"/>
	<path fill="#64BE4B" d="M54,18.584c0,0,12.993-9.141,29.793-9.618C75.253,3.305,65.015,0,54,0C42.986,0,32.747,3.305,24.207,8.967
		C41.006,9.443,54,18.584,54,18.584z"/>
	<path fill="#64BE4B" d="M54,40.022c0,0-26.835,17.622-36.234,54.014C27.347,102.713,40.056,108,54,108s26.652-5.287,36.233-13.964
		C80.835,57.645,54,40.022,54,40.022z"/>
	<path fill="#64BE4B" d="M38.868,29.303C25.143,18.902,16.06,18.13,13.647,18.131C5.163,27.67,0,40.229,0,54
		c0,12.596,4.325,24.175,11.554,33.36C11.367,49.384,38.868,29.303,38.868,29.303z"/>
</g>
</svg>
